# xmcd
#
# Track frame offsets:
#	150
#	19178
#	32690
#	51285
#	65865
#	87449
#	107992
#	118848
#	136340
#	149986
#	161759
#	178245
#	186495
#	204894
#	222093
#
# Disc length: 3147 seconds
#
# Revision: 0
# Processed by: cddbd v1.4PL0 Copyright (c) Steve Scherf et al.
# Submitted via: EasyCDDAExtractor 4.6.0.1
#
DISCID=f20c490f
DTITLE=Hat Fitz - Jug Sloucherz
DYEAR=1900
DGENRE=Country
TTITLE0=Viola Lee
TTITLE1=Movin Out
TTITLE2=ZZ-Rider
TTITLE3=Mudduck
TTITLE4=Clean Up At Home
TTITLE5=Runnin' Shoe'z
TTITLE6=Hatz Rootz
TTITLE7=(and leaves)
TTITLE8=Comin Lord
TTITLE9=K-Road
TTITLE10=Jivin Woman
TTITLE11=Whitewash Woman
TTITLE12=Jittabug Swing
TTITLE13=Sloucher'z Soundcheck
TTITLE14=Ryebuck Jug
EXTD=
EXTT0=
EXTT1=
EXTT2=
EXTT3=
EXTT4=
EXTT5=
EXTT6=
EXTT7=
EXTT8=
EXTT9=
EXTT10=
EXTT11=
EXTT12=
EXTT13=
EXTT14=
PLAYORDER=
